<?xml version="1.0" encoding="UTF-8"?>
<svg id="_レイヤー_1" data-name="レイヤー 1" xmlns="http://www.w3.org/2000/svg" viewBox="0 0 101.32 110.9">
  <defs>
    <style>
      .cls-1 {
        fill: #fff;
      }

      .cls-2 {
        stroke-miterlimit: 10;
      }

      .cls-2, .cls-3 {
        stroke: #fff;
      }

      .cls-3 {
        fill: none;
        stroke-width: 2px;
      }
    </style>
  </defs>
  <g>
    <path d="M36.1,0h-13.24c-.69,0-1.25.56-1.25,1.25v.47h-10c-1.6,0-3.13.33-4.52.92-2.09.88-3.86,2.35-5.11,4.2-1.25,1.85-1.98,4.1-1.98,6.5v83.25c0,1.59.33,3.13.92,4.52.88,2.09,2.35,3.85,4.2,5.1,1.85,1.25,4.1,1.98,6.5,1.98h69.49c1.59,0,3.13-.32,4.52-.92,2.09-.88,3.86-2.35,5.11-4.2,1.25-1.85,1.98-4.1,1.98-6.49V13.34c0-1.6-.32-3.13-.92-4.52-.88-2.09-2.35-3.85-4.2-5.1-1.85-1.25-4.1-1.98-6.5-1.98h-10v-.47C71.11.56,70.55,0,69.85,0h-13.24M49.92,0h-7.12M85.81,96.59c0,.66-.13,1.27-.37,1.83-.35.84-.95,1.56-1.71,2.08-.75.51-1.64.8-2.63.8H11.61c-.66,0-1.27-.13-1.83-.37-.84-.36-1.56-.96-2.07-1.71-.51-.75-.8-1.64-.8-2.63V13.34c0-.66.13-1.27.37-1.83.36-.84.96-1.57,1.71-2.07.75-.51,1.64-.8,2.63-.8h10v1.44c0,2.7,2.19,4.89,4.9,4.89h39.71c2.7,0,4.89-2.19,4.89-4.89v-1.44h10c.66,0,1.27.13,1.83.37.84.35,1.56.95,2.07,1.71s.8,1.64.8,2.63v83.25Z"/>
    <rect x="22.95" y="28.2" width="7.41" height="7.41"/>
    <rect x="39.21" y="28.2" width="30.55" height="7.41"/>
    <rect x="22.95" y="50.1" width="7.41" height="7.41"/>
    <rect x="39.21" y="50.1" width="30.55" height="7.41"/>
    <rect x="22.95" y="72.01" width="7.41" height="7.41"/>
    <rect x="39.21" y="72.01" width="30.55" height="7.41"/>
  </g>
  <g>
    <g>
      <path class="cls-2" d="M99.27,48.68c-2.02-1.85-5.16-1.73-7.03.28l-4.29,4.61,7.23,6.75,4.3-4.61c1.87-2.01,1.77-5.14-.2-7.03Z"/>
      <path class="cls-2" d="M99.23,48.63s.03.03.04.05c.01.01.03.02.05.03l-.09-.08Z"/>
      <path class="cls-2" d="M48.09,94.17c-.88.94-.83,2.42.12,3.3l5.96,5.55c.94.88,2.42.83,3.3-.12l14.64-15.7-9.37-8.74-14.64,15.7Z"/>
      <polygon class="cls-2" points="43.85 106.85 41.82 109.03 43.07 110.2 45.1 108.02 54.01 104.76 46.48 97.73 43.85 106.85"/>
      <path class="cls-2" d="M64.29,76.8l9.37,8.74,21.33-22.87-9.37-8.74-21.33,22.87ZM88.01,60.75c.81.75.85,2.02.1,2.83l-10.38,11.13c-.75.81-2.02.85-2.83.1-.81-.75-.85-2.02-.1-2.83l10.38-11.13c.75-.81,2.02-.85,2.83-.1Z"/>
    </g>
    <g>
      <path class="cls-3" d="M99.27,48.68c-2.02-1.85-5.16-1.73-7.03.28l-4.29,4.61,7.23,6.75,4.3-4.61c1.87-2.01,1.77-5.14-.2-7.03Z"/>
      <path class="cls-3" d="M99.23,48.63s.03.03.04.05c.01.01.03.02.05.03l-.09-.08Z"/>
      <path class="cls-3" d="M48.09,94.17c-.88.94-.83,2.42.12,3.3l5.96,5.55c.94.88,2.42.83,3.3-.12l14.64-15.7-9.37-8.74-14.64,15.7Z"/>
      <polygon class="cls-3" points="43.85 106.85 41.82 109.03 43.07 110.2 45.1 108.02 54.01 104.76 46.48 97.73 43.85 106.85"/>
      <path class="cls-3" d="M64.29,76.8l9.37,8.74,21.33-22.87-9.37-8.74-21.33,22.87ZM88.01,60.75c.81.75.85,2.02.1,2.83l-10.38,11.13c-.75.81-2.02.85-2.83.1-.81-.75-.85-2.02-.1-2.83l10.38-11.13c.75-.81,2.02-.85,2.83-.1Z"/>
    </g>
    <g>
      <path d="M99.27,48.68c-2.02-1.85-5.16-1.73-7.03.28l-4.29,4.61,7.23,6.75,4.3-4.61c1.87-2.01,1.77-5.14-.2-7.03Z"/>
      <path d="M99.23,48.63s.03.03.04.05c.01.01.03.02.05.03l-.09-.08Z"/>
      <path d="M48.09,94.17c-.88.94-.83,2.42.12,3.3l5.96,5.55c.94.88,2.42.83,3.3-.12l14.64-15.7-9.37-8.74-14.64,15.7Z"/>
      <polygon points="43.85 106.85 41.82 109.03 43.07 110.2 45.1 108.02 54.01 104.76 46.48 97.73 43.85 106.85"/>
      <path d="M64.29,76.8l9.37,8.74,21.33-22.87-9.37-8.74-21.33,22.87ZM88.01,60.75c.81.75.85,2.02.1,2.83l-10.38,11.13c-.75.81-2.02.85-2.83.1-.81-.75-.85-2.02-.1-2.83l10.38-11.13c.75-.81,2.02-.85,2.83-.1Z"/>
    </g>
  </g>
  <polygon class="cls-1" points="62.53 77.22 63.14 76.56 67.87 81.18 66.59 81.18 62.53 77.22"/>
</svg>